<svg xmlns="http://www.w3.org/2000/svg" width="28" height="28" viewBox="0 0 28 28" fill="none">
  <circle cx="14" cy="14" r="12" stroke="#25D366" stroke-width="2"/>
  <path d="M9.7 21L10.5 17.8C9.6 16.7 9.1 15.4 9.1 14C9.1 10.2 12.2 7.2 16 7.2C19.8 7.2 22.9 10.2 22.9 14C22.9 17.8 19.8 20.8 16 20.8C14.7 20.8 13.4 20.4 12.3 19.6L9.7 21Z" stroke="#25D366" stroke-width="1.6" stroke-linejoin="round"/>
  <path d="M13.1 11.2C12.9 10.7 12.7 10.7 12.4 10.7H12C11.8 10.7 11.5 10.8 11.3 11.1C11.1 11.3 10.5 11.9 10.5 13C10.5 14.1 11.3 15.1 11.4 15.3C11.6 15.5 13.1 17.8 15.3 18.7C17.1 19.4 17.5 19.2 18 19.2C18.5 19.2 19.6 18.6 19.8 17.9C20.1 17.2 20.1 16.6 20 16.4C19.8 16.2 19.5 16.1 19.1 15.9C18.7 15.8 16.9 14.9 16.6 14.8C16.3 14.7 16.1 14.6 15.9 14.9C15.7 15.2 15.1 15.9 14.9 16.2C14.7 16.4 14.5 16.5 14.2 16.4C13.9 16.2 13 15.9 12 15C11.3 14.4 10.9 13.7 10.7 13.4C10.5 13.1 10.7 12.9 10.9 12.7C11 12.5 11.2 12.3 11.3 12.1C11.5 11.9 11.6 11.7 11.7 11.5C11.8 11.3 11.8 11.1 11.7 10.9" fill="#25D366"/>
</svg>
