<svg xmlns="http://www.w3.org/2000/svg" viewBox="0 0 1600 900" role="img" aria-label="Form decor background">
  <rect width="1600" height="900" fill="#F2EEE9"/>

  <g stroke="#CDBA87" stroke-width="5" fill="none" stroke-linecap="round">
    <path d="M120 140h120M120 140v120M165 95h120M165 95v120M210 50h120M210 50v120"/>
    <circle cx="350" cy="60" r="5" fill="#CDBA87" stroke="none"/>

    <path d="M1480 140h-120M1480 140v120M1435 95h-120M1435 95v120M1390 50h-120M1390 50v120"/>
    <circle cx="1250" cy="60" r="5" fill="#CDBA87" stroke="none"/>
  </g>

  <line x1="360" y1="360" x2="1240" y2="360" stroke="#5A5A5A" stroke-width="2"/>
  <line x1="360" y1="690" x2="1240" y2="690" stroke="#5A5A5A" stroke-width="2"/>

  <g transform="translate(220 640)" stroke="#CDBA87" fill="none" stroke-width="5">
    <path d="M0 40l20-30h40v60H20z"/>
    <path d="M20 10l20-20h20v20"/>
  </g>
  <g transform="translate(1320 640)" stroke="#CDBA87" fill="none" stroke-width="5">
    <path d="M0 40l20-30h40v60H20z"/>
    <path d="M20 10l20-20h20v20"/>
  </g>
</svg>
